<?xml version="1.0" encoding="UTF-8"?>
<svg id="Layer_1" data-name="Layer 1" xmlns="http://www.w3.org/2000/svg" viewBox="0 0 1874.09 447.88">
  <polygon points="449.47 296.7 413.47 234.34 334.76 245.7 435.55 117.56 365.99 98.92 318.36 162.61 299.02 .73 236.66 36.74 248.02 115.45 119.87 14.66 101.23 84.22 164.92 131.84 3.05 151.18 39.05 213.55 117.76 202.19 16.97 330.33 86.53 348.97 134.16 285.28 153.5 447.16 215.86 411.15 204.5 332.44 332.64 433.23 351.28 363.67 287.6 316.05 449.47 296.7" fill="#FFE317"/>
  <text transform="translate(1823.3 80.23)" font-family="FunnelDisplay-Light, &apos;Funnel Display&apos;" font-size="31.31" font-weight="300"><tspan x="0" y="0">TM</tspan></text>
  <path d="M1826.86,224.7c-13.55-12.94-34.78-22.33-63.71-28.17l-63.27-12.01c-9.54-1.84-16.61-4.77-21.23-8.78-4.62-3.99-6.92-8.91-6.92-14.75,0-8.31,3.69-14.56,11.08-18.7,7.39-4.16,18.17-6.25,32.33-6.25,16.29,0,28.76,2.93,37.4,8.78,8.61,5.85,14.6,15.24,18,28.15h73.86c-2.15-29.23-14.16-52-36-68.33-21.86-16.29-51.41-24.46-88.66-24.46s-66.94,7.93-88.17,23.78c-21.25,15.85-31.87,37.02-31.87,63.48,0,41.24,27.71,67.26,83.11,78.02l61.86,12.01c11.1,2.15,19.01,5.3,23.78,9.45,4.77,4.16,7.15,9.79,7.15,16.86,0,17.56-15.85,26.32-47.55,26.32-19.39,0-34.25-3.23-44.55-9.69-10.32-6.46-16.69-16.31-19.16-29.57h-73.88c1.86,30.79,14.54,54.72,38.09,71.82,23.55,17.07,55.65,25.62,96.28,25.62s69.64-8,90.73-24.02c21.08-16,31.61-38.32,31.61-66.96,0-22.14-6.75-39.7-20.3-52.61Z"/>
  <path d="M728.26,85.82l-75.19,188.18h-1.84l-77.49-188.18h-80.7l118.52,276.73h77.49l118.54-276.73h-79.33Z"/>
  <path d="M1027.01,107.96c-21.67-18.44-53.12-27.69-94.31-27.69-37.21,0-67.05,7.85-89.48,23.53-22.45,15.7-36.76,38.75-42.9,69.18h76.12c6.44-21.5,25.2-32.27,56.26-32.27,35.67,0,53.5,14.92,53.5,44.74v10.59h-79.33c-35.69,0-63.04,7.37-82.11,22.14-19.04,14.77-28.57,35.83-28.57,63.18,0,25.85,9.22,46.66,27.67,62.51,18.44,15.85,43.96,23.74,76.56,23.74,24,0,43.98-4.37,59.96-13.15,15.98-8.76,28.74-21.12,38.28-37.12h9.88v-39.93h51.01v-88.76c0-35.35-10.85-62.26-32.52-80.7ZM980.37,271.02l-74.41,44.63h-28.79v-72.13h103.2v27.5Z"/>
  <path d="M1301.91,260.16c-7.07,27.67-26.91,41.51-59.49,41.51-20.3,0-36.76-6.77-49.36-20.3-12.62-13.53-18.93-32.58-18.93-57.19s6.25-43.64,18.7-57.19c12.45-13.53,28.98-20.28,49.59-20.28,15.05,0,27.5,3.23,37.35,9.69,9.83,6.44,16.76,15.66,20.74,27.67h77.05c-6.16-32.29-21.08-57.66-44.76-76.1-23.68-18.44-53.81-27.69-90.39-27.69-28.91,0-54.28,5.93-76.12,17.77-21.82,11.84-38.73,28.53-50.73,50.04-11.99,21.53-17.98,46.89-17.98,76.1s6.08,54.6,18.21,76.1c12.16,21.55,29.06,38.22,50.73,50.04,21.69,11.86,46.98,17.77,75.89,17.77,38.11,0,69.01-9.52,92.71-28.6,23.68-19.06,38.28-45.5,43.81-79.33h-77.03Z"/>
  <path d="M1433.07,27.34v50.31h74.71V27.34h-74.71Z"/>
  <path d="M1575.58,294.18v68.38h-113.56c-11.69-11.69-18.23-18.23-29.93-29.93v-60.48h.04v-121.01h76.56v143.04h66.88Z"/>
  <polygon points="1567.27 87.15 1567.27 107.34 1532.98 141.64 1381.57 141.64 1381.57 121.44 1415.85 87.15 1567.27 87.15" fill="#FFE317"/>
  <polygon points="1095.49 286.92 1095.49 324.8 1057.76 362.55 1018.02 362.55 1018.02 286.92 1095.49 286.92" fill="#FFE317"/>
  <polygon points="1095.51 324.82 1057.76 362.55 1095.49 324.8 1095.49 286.92 1095.51 324.82" fill="#FFE317"/>
</svg>